<svg width="40" height="40" viewBox="0 0 24 24" fill="none" xmlns="http://www.w3.org/2000/svg">
  <path d="M6.76 4.84l-1.8-1.79 1.41-1.41 1.79 1.8-1.4 1.4zm10.45-1.79l1.79 1.8-1.41 1.41-1.8-1.79 1.42-1.42zm-4.2-1.84h2v3h-2v-3zm6.55 11.25a7.948 7.948 0 01-1.7 4.96l1.42 1.42a9.953 9.953 0 002.09-6.38h-2zm-13.2 0h-2c0 2.4.73 4.61 2.09 6.38l1.42-1.42a7.948 7.948 0 01-1.7-4.96zm7.55 7.55v2h-2v-2h2zm4.25 1.42l1.79 1.8-1.41 1.41-1.8-1.79 1.42-1.42zm-10.45 0l1.41 1.41-1.8 1.79-1.41-1.41 1.8-1.79zM12 4a8 8 0 100 16 8 8 0 000-16z" fill="currentColor"/>
</svg>
